<?xml version="1.0" standalone="no"?>
<!DOCTYPE svg PUBLIC "-//W3C//DTD SVG 20010904//EN"
 "http://www.w3.org/TR/2001/REC-SVG-20010904/DTD/svg10.dtd">
<svg version="1.0" xmlns="http://www.w3.org/2000/svg"
 width="128.000000pt" height="128.000000pt" viewBox="0 0 128.000000 128.000000"
 preserveAspectRatio="xMidYMid meet">

<g transform="translate(0.000000,128.000000) scale(0.100000,-0.100000)"
fill="#000000" stroke="none">
<path d="M0 640 l0 -640 90 0 c83 0 90 1 90 20 0 11 5 20 10 20 6 0 10 18 10
40 0 22 5 40 10 40 6 0 10 7 10 15 0 25 46 65 75 65 14 0 25 5 25 10 0 6 37
10 90 10 75 0 90 -3 90 -15 0 -20 45 -65 65 -65 8 0 15 -4 15 -10 0 -6 30 -10
70 -10 40 0 70 4 70 10 0 6 7 10 15 10 20 0 65 45 65 65 0 12 15 15 80 15 47
0 80 -4 80 -10 0 -5 11 -10 25 -10 29 0 75 -40 75 -65 0 -8 5 -15 10 -15 6 0
10 -18 10 -40 0 -22 5 -40 10 -40 6 0 10 -9 10 -20 0 -19 7 -20 90 -20 l90 0
0 640 0 640 -640 0 -640 0 0 -640z m700 450 c0 -5 -18 -10 -40 -10 -22 0 -40
5 -40 10 0 6 18 10 40 10 22 0 40 -4 40 -10z m155 -215 c17 -16 25 -35 25 -60
0 -19 5 -35 10 -35 6 0 10 -22 10 -50 0 -49 -1 -50 -30 -50 -30 0 -41 15 -18
22 17 6 -14 38 -36 38 -9 0 -16 5 -16 10 0 21 -70 10 -95 -15 -30 -29 -31 -35
-5 -35 11 0 20 5 20 10 0 6 23 10 50 10 28 0 50 -4 50 -10 0 -5 -13 -10 -30
-10 -16 0 -30 -4 -30 -10 0 -5 -13 -10 -30 -10 -16 0 -30 -4 -30 -10 0 -5 -9
-10 -20 -10 -13 0 -20 -7 -20 -20 0 -11 -4 -20 -10 -20 -5 0 -10 9 -10 20 0
13 -7 20 -20 20 -11 0 -20 5 -20 10 0 6 -13 10 -30 10 -16 0 -30 5 -30 10 0 6
-13 10 -30 10 -16 0 -30 5 -30 10 0 6 23 10 50 10 28 0 50 -4 50 -10 0 -5 9
-10 20 -10 26 0 25 6 -5 35 -25 25 -95 36 -95 15 0 -5 -7 -10 -16 -10 -22 0
-53 -32 -36 -38 23 -7 12 -22 -18 -22 -29 0 -30 1 -30 50 0 28 5 50 10 50 6 0
10 16 10 35 0 23 8 44 23 60 22 23 25 24 205 24 181 1 183 1 207 -24z m-515
-175 c0 -33 -4 -60 -10 -60 -5 0 -10 14 -10 30 0 17 -4 30 -10 30 -5 0 -10 14
-10 30 0 23 4 30 20 30 18 0 20 -7 20 -60z m660 30 c0 -16 -4 -30 -10 -30 -5
0 -10 -13 -10 -30 0 -16 -4 -30 -10 -30 -6 0 -10 27 -10 60 0 53 2 60 20 60
16 0 20 -7 20 -30z m-500 -89 c0 -11 6 -21 12 -23 9 -3 8 -9 -4 -21 -18 -19
-48 -23 -48 -7 0 6 9 10 20 10 11 0 20 5 20 10 0 6 -4 10 -10 10 -5 0 -10 9
-10 20 0 11 5 20 10 20 6 0 10 -9 10 -19z m60 9 c0 -5 -4 -10 -10 -10 -5 0
-10 5 -10 10 0 6 5 10 10 10 6 0 10 -4 10 -10z m200 0 c0 -5 -4 -10 -10 -10
-5 0 -10 5 -10 10 0 6 5 10 10 10 6 0 10 -4 10 -10z m60 -10 c0 -11 -4 -20
-10 -20 -5 0 -10 -4 -10 -10 0 -5 9 -10 20 -10 11 0 20 -4 20 -10 0 -16 -30
-12 -48 7 -12 12 -13 18 -4 21 6 2 12 12 12 23 0 10 5 19 10 19 6 0 10 -9 10
-20z m-394 -14 c8 -8 14 -20 14 -26 0 -27 30 -40 94 -40 37 0 66 4 66 10 0 6
5 10 10 10 6 0 10 -18 10 -40 0 -22 -4 -40 -10 -40 -5 0 -10 -13 -10 -30 0
-23 -4 -30 -20 -30 -11 0 -20 -4 -20 -10 0 -5 -13 -10 -30 -10 -34 0 -37 -5
-16 -26 16 -16 86 -19 86 -4 0 6 9 10 20 10 11 0 20 -4 20 -10 0 -5 -4 -10
-10 -10 -15 0 -12 -29 5 -46 13 -14 17 -14 30 0 17 17 20 46 5 46 -5 0 -10 5
-10 10 0 6 9 10 20 10 11 0 20 -4 20 -10 0 -15 70 -12 86 4 21 21 18 26 -16
26 -16 0 -30 5 -30 10 0 6 -9 10 -20 10 -16 0 -20 7 -20 30 0 17 -4 30 -10 30
-5 0 -10 18 -10 40 0 22 5 40 10 40 6 0 10 -4 10 -10 0 -6 29 -10 66 -10 64 0
94 13 94 40 0 12 24 40 34 40 3 0 6 -18 6 -40 0 -22 -4 -40 -10 -40 -5 0 -10
-18 -10 -40 0 -22 -4 -40 -10 -40 -5 0 -10 -9 -10 -20 0 -11 -4 -20 -10 -20
-5 0 -10 -9 -10 -20 0 -11 -4 -20 -10 -20 -5 0 -10 -7 -10 -15 0 -9 -29 -45
-65 -80 -58 -59 -69 -65 -105 -65 -36 0 -47 6 -105 65 -36 35 -65 71 -65 80 0
8 -4 15 -10 15 -5 0 -10 9 -10 20 0 11 -4 20 -10 20 -5 0 -10 9 -10 20 0 11
-4 20 -10 20 -5 0 -10 18 -10 40 0 22 -4 40 -10 40 -5 0 -10 18 -10 40 0 43 4
47 26 26z m234 -76 c0 -27 5 -50 10 -50 6 0 10 -9 10 -20 0 -16 -7 -20 -30
-20 -23 0 -30 4 -30 20 0 11 5 20 10 20 6 0 10 23 10 50 0 28 5 50 10 50 6 0
10 -22 10 -50z"/>
</g>
</svg>
